#N canvas 188 37 624 778 12;
#X obj 134 254 soundfiler;
#N canvas 0 22 450 278 (subpatch) 0;
#X array IR 6742 float 0;
#A color 0;
#A width 1;
#X coords 0 1 6741 -1 560 60 1;
#X restore 25 300 graph;
#X obj 123 626 hsl 100 19 -1 1 0 1 empty empty dry\ <----->\ wet -2 -10 0 12 #fcfcfc #000000 #000000 4700 1;
#X floatatom 147 710 5 0 0 0 - - - 16;
#X obj 66 557 fftconv~;
#X msg 86 518 set IR;
#X obj 147 686 else/meter;
#X obj 29 626 else/xfade~;
#X obj 29 685 else/out~;
#X obj 25 254 s \$0-reload;
#X obj 86 489 r \$0-reload;
#X obj 25 167 t b a, f 16;
#X obj 25 60 openpanel;
#X obj 25 31 bng 19 250 50 0 empty empty empty 0 -10 0 12 #fcfcfc #000000 #000000;
#X obj 134 196 symbol;
#X msg 134 225 read -resize \$1 IR;
#X floatatom 218 255 19 0 0 0 - - - 0;
#X msg 195 49 AK-SPKRS_ModUs_001.wav;
#X msg 195 78 AK-SPKRS_Radio_001.wav;
#X msg 195 107 AKIR_Springer_01.wav;
#X obj 28 391 tgl 19 1 empty empty empty 0 -10 0 12 #fcfcfc #000000 #000000 1 1;
#X obj 28 420 else/play.file~ -loop 303_loop.wav;
#X text 370 50 these IRs were made by Kristoffer Ekstrand (a.k.a. Adventure Kid) and are licensed under CC BY 4.0., f 24;
#X connect 0 0 16 0;
#X connect 2 0 7 2;
#X connect 4 0 7 1;
#X connect 5 0 4 0;
#X connect 6 0 3 0;
#X connect 7 0 8 0;
#X connect 10 0 5 0;
#X connect 11 0 9 0;
#X connect 11 1 14 0;
#X connect 12 0 11 0;
#X connect 13 0 12 0;
#X connect 14 0 15 0;
#X connect 15 0 0 0;
#X connect 17 0 11 0;
#X connect 18 0 11 0;
#X connect 19 0 11 0;
#X connect 20 0 21 0;
#X connect 21 0 4 0;
#X connect 21 0 7 0;
